<svg width="307" height="310" viewBox="0 0 307 310" fill="none" xmlns="http://www.w3.org/2000/svg">
<g id="Favicon">
<g clip-path="url(#clip0_5_17)">
<rect x="5" y="5" width="296.053" height="300" rx="148.026" fill="white"/>
<g id="Icon">
<circle id="Ellipse 1" cx="153" cy="155" r="150" fill="#F1F5FF" fill-opacity="0.75"/>
<path id="wave1" d="M321 73.2246L305.75 57.5767C290.5 41.9287 260 10.6328 229.5 21.0974C199 31.1707 168.5 83.9826 138 125.352C107.5 167.112 77 198.408 46.5 203.592C16 209.166 -14.5 187.65 -29.75 177.577L-45 167.112V261H-29.75C-14.5 261 16 261 46.5 261C77 261 107.5 261 138 261C168.5 261 199 261 229.5 261C260 261 290.5 261 305.75 261H321V73.2246Z" fill="#DBE5FF"/>
<path id="wave2" d="M309 172V152C303.5 135 311 129 297 95C265.417 104.116 238.083 150.807 206.5 188.244C174.917 226.036 143.333 254.357 111.75 259.048C80.1666 264.092 47.5833 249.011 32.7917 235.505C18 222 19 223 17 226C15 229 36.5 259.048 36.5 259.048L61 283C86.5 292.5 87 291.5 111.75 302.5C153.5 310.5 122.5 304.5 155 311.5C186.583 311.5 187.5 307.291 206.5 298.5C240 283 206.5 298.5 240 283L270.5 259.048L303.5 198L309 172Z" fill="#B5C9FF"/>
<g id="$">
<mask id="path-5-outside-1_5_17" maskUnits="userSpaceOnUse" x="69" y="17" width="141" height="230" fill="black">
<rect fill="white" x="69" y="17" width="141" height="230"/>
<path d="M139.76 244.6C133.133 244.6 127.76 239.227 127.76 232.6V31C127.76 24.3726 133.133 19 139.76 19V19C146.387 19 151.76 24.3726 151.76 31V232.6C151.76 239.227 146.387 244.6 139.76 244.6V244.6ZM136.4 218.68C122.96 218.68 110.08 216.92 97.76 213.4C90.6101 211.264 84.2685 208.778 78.7353 205.942C72.1286 202.556 70.1575 194.454 73.2087 187.686V187.686C77.3472 178.506 88.917 175.399 98.1578 179.399C100.869 180.573 103.696 181.667 106.64 182.68C116.56 185.88 126.56 187.48 136.64 187.48C144.32 187.48 150.48 186.76 155.12 185.32C159.92 183.72 163.44 181.56 165.68 178.84C167.92 176.12 169.04 173 169.04 169.48C169.04 165 167.28 161.48 163.76 158.92C160.24 156.2 155.6 154.04 149.84 152.44C144.08 150.68 137.68 149.08 130.64 147.64C123.76 146.04 116.8 144.12 109.76 141.88C102.88 139.64 96.56 136.76 90.8 133.24C85.04 129.72 80.32 125.08 76.64 119.32C73.12 113.56 71.36 106.2 71.36 97.24C71.36 87.64 73.92 78.92 79.04 71.08C84.32 63.08 92.16 56.76 102.56 52.12C113.12 47.32 126.32 44.92 142.16 44.92C152.72 44.92 163.12 46.2 173.36 48.76C178.752 50.0238 183.811 51.6424 188.538 53.616C195.73 56.6189 198.344 65.0535 195.41 72.2733V72.2733C191.741 81.298 180.985 84.8542 171.803 81.6002C169.522 80.7919 167.241 80.0852 164.96 79.48C157.12 77.24 149.44 76.12 141.92 76.12C134.4 76.12 128.24 77 123.44 78.76C118.64 80.52 115.2 82.84 113.12 85.72C111.04 88.44 110 91.64 110 95.32C110 99.64 111.76 103.16 115.28 105.88C118.8 108.44 123.44 110.52 129.2 112.12C134.96 113.72 141.28 115.32 148.16 116.92C155.2 118.52 162.16 120.36 169.04 122.44C176.08 124.52 182.48 127.32 188.24 130.84C194 134.36 198.64 139 202.16 144.76C205.84 150.52 207.68 157.8 207.68 166.6C207.68 176.04 205.04 184.68 199.76 192.52C194.48 200.36 186.56 206.68 176 211.48C165.6 216.28 152.4 218.68 136.4 218.68Z"/>
</mask>
<path d="M139.76 244.6C133.133 244.6 127.76 239.227 127.76 232.6V31C127.76 24.3726 133.133 19 139.76 19V19C146.387 19 151.76 24.3726 151.76 31V232.6C151.76 239.227 146.387 244.6 139.76 244.6V244.6ZM136.4 218.68C122.96 218.68 110.08 216.92 97.76 213.4C90.6101 211.264 84.2685 208.778 78.7353 205.942C72.1286 202.556 70.1575 194.454 73.2087 187.686V187.686C77.3472 178.506 88.917 175.399 98.1578 179.399C100.869 180.573 103.696 181.667 106.64 182.68C116.56 185.88 126.56 187.48 136.64 187.48C144.32 187.48 150.48 186.76 155.12 185.32C159.92 183.72 163.44 181.56 165.68 178.84C167.92 176.12 169.04 173 169.04 169.48C169.04 165 167.28 161.48 163.76 158.92C160.24 156.2 155.6 154.04 149.84 152.44C144.08 150.68 137.68 149.08 130.64 147.64C123.76 146.04 116.8 144.12 109.76 141.88C102.88 139.64 96.56 136.76 90.8 133.24C85.04 129.72 80.32 125.08 76.64 119.32C73.12 113.56 71.36 106.2 71.36 97.24C71.36 87.64 73.92 78.92 79.04 71.08C84.32 63.08 92.16 56.76 102.56 52.12C113.12 47.32 126.32 44.92 142.16 44.92C152.72 44.92 163.12 46.2 173.36 48.76C178.752 50.0238 183.811 51.6424 188.538 53.616C195.73 56.6189 198.344 65.0535 195.41 72.2733V72.2733C191.741 81.298 180.985 84.8542 171.803 81.6002C169.522 80.7919 167.241 80.0852 164.96 79.48C157.12 77.24 149.44 76.12 141.92 76.12C134.4 76.12 128.24 77 123.44 78.76C118.64 80.52 115.2 82.84 113.12 85.72C111.04 88.44 110 91.64 110 95.32C110 99.64 111.76 103.16 115.28 105.88C118.8 108.44 123.44 110.52 129.2 112.12C134.96 113.72 141.28 115.32 148.16 116.92C155.2 118.52 162.16 120.36 169.04 122.44C176.08 124.52 182.48 127.32 188.24 130.84C194 134.36 198.64 139 202.16 144.76C205.84 150.52 207.68 157.8 207.68 166.6C207.68 176.04 205.04 184.68 199.76 192.52C194.48 200.36 186.56 206.68 176 211.48C165.6 216.28 152.4 218.68 136.4 218.68Z" fill="white"/>
<path d="M139.76 244.6C133.133 244.6 127.76 239.227 127.76 232.6V31C127.76 24.3726 133.133 19 139.76 19V19C146.387 19 151.76 24.3726 151.76 31V232.6C151.76 239.227 146.387 244.6 139.76 244.6V244.6ZM136.4 218.68C122.96 218.68 110.08 216.92 97.76 213.4C90.6101 211.264 84.2685 208.778 78.7353 205.942C72.1286 202.556 70.1575 194.454 73.2087 187.686V187.686C77.3472 178.506 88.917 175.399 98.1578 179.399C100.869 180.573 103.696 181.667 106.64 182.68C116.56 185.88 126.56 187.48 136.64 187.48C144.32 187.48 150.48 186.76 155.12 185.32C159.92 183.72 163.44 181.56 165.68 178.84C167.92 176.12 169.04 173 169.04 169.48C169.04 165 167.28 161.48 163.76 158.92C160.24 156.2 155.6 154.04 149.84 152.44C144.08 150.68 137.68 149.08 130.64 147.64C123.76 146.04 116.8 144.12 109.76 141.88C102.88 139.64 96.56 136.76 90.8 133.24C85.04 129.72 80.32 125.08 76.64 119.32C73.12 113.56 71.36 106.2 71.36 97.24C71.36 87.64 73.92 78.92 79.04 71.08C84.32 63.08 92.16 56.76 102.56 52.12C113.12 47.32 126.32 44.92 142.16 44.92C152.72 44.92 163.12 46.2 173.36 48.76C178.752 50.0238 183.811 51.6424 188.538 53.616C195.73 56.6189 198.344 65.0535 195.41 72.2733V72.2733C191.741 81.298 180.985 84.8542 171.803 81.6002C169.522 80.7919 167.241 80.0852 164.96 79.48C157.12 77.24 149.44 76.12 141.92 76.12C134.4 76.12 128.24 77 123.44 78.76C118.64 80.52 115.2 82.84 113.12 85.72C111.04 88.44 110 91.64 110 95.32C110 99.64 111.76 103.16 115.28 105.88C118.8 108.44 123.44 110.52 129.2 112.12C134.96 113.72 141.28 115.32 148.16 116.92C155.2 118.52 162.16 120.36 169.04 122.44C176.08 124.52 182.48 127.32 188.24 130.84C194 134.36 198.64 139 202.16 144.76C205.84 150.52 207.68 157.8 207.68 166.6C207.68 176.04 205.04 184.68 199.76 192.52C194.48 200.36 186.56 206.68 176 211.48C165.6 216.28 152.4 218.68 136.4 218.68Z" stroke="#DBE5FF" stroke-width="4" mask="url(#path-5-outside-1_5_17)"/>
</g>
</g>
</g>
<rect x="5" y="5" width="296.053" height="300" rx="148.026" stroke="#B5C9FF" stroke-width="10"/>
</g>
<defs>
<clipPath id="clip0_5_17">
<rect x="5" y="5" width="296.053" height="300" rx="148.026" fill="white"/>
</clipPath>
</defs>
</svg>
