<svg width="307" height="310" viewBox="0 0 307 310" fill="none" xmlns="http://www.w3.org/2000/svg">
<g clip-path="url(#clip0_4_15)">
<rect x="5" y="5" width="296.053" height="300" rx="148.026" fill="white"/>
<circle cx="153" cy="155" r="150" fill="#F1F5FF" fill-opacity="0.75"/>
<g filter="url(#filter0_d_4_15)">
<path d="M321 73.2246L305.75 57.5767C290.5 41.9287 260 10.6328 229.5 21.0974C199 31.1707 168.5 83.9826 138 125.352C107.5 167.112 77 198.408 46.5 203.592C16 209.166 -14.5 187.65 -29.75 177.577L-45 167.112V261H-29.75C-14.5 261 16 261 46.5 261C77 261 107.5 261 138 261C168.5 261 199 261 229.5 261C260 261 290.5 261 305.75 261H321V73.2246Z" fill="#DBE5FF"/>
</g>
<path d="M111.898 206.038L111.909 206.042C119.414 208.186 127.172 209.52 135.184 210.047V220.44C135.184 226.294 139.93 231.04 145.784 231.04C151.638 231.04 156.384 226.294 156.384 220.44V209.523C163.538 208.622 169.811 206.937 175.192 204.453C183.769 200.554 190.265 195.391 194.613 188.935C198.948 182.498 201.12 175.391 201.12 167.64C201.12 160.468 199.621 154.446 196.552 149.638C193.654 144.899 189.83 141.076 185.089 138.179C180.402 135.314 175.202 133.041 169.495 131.354C165.164 130.045 160.794 128.854 156.384 127.781V96.9025C159.444 97.3437 162.539 98.0111 165.669 98.9055L165.678 98.9081L165.688 98.9106C167.486 99.3876 169.284 99.9449 171.084 100.583C178.82 103.324 188.051 100.375 191.23 92.5552C193.743 86.3744 191.548 78.9842 185.192 76.33C181.358 74.7291 177.26 73.4184 172.9 72.3961C167.451 71.0343 161.945 70.1211 156.384 69.6566V59.16C156.384 53.3058 151.638 48.56 145.784 48.56C139.93 48.56 135.184 53.3058 135.184 59.16V69.9934C127.773 70.8723 121.246 72.5846 115.613 75.1442C107.154 78.9189 100.72 84.0871 96.3734 90.6731L96.3707 90.6772C92.1657 97.1161 90.064 104.283 90.064 112.152C90.064 119.445 91.4962 125.529 94.4347 130.337L94.4399 130.346L94.4453 130.354C97.47 135.089 101.355 138.909 106.095 141.805C110.774 144.665 115.902 147 121.474 148.815L121.481 148.817C126.09 150.284 130.658 151.58 135.184 152.705V182.905C129.966 182.338 124.773 181.222 119.605 179.555C117.276 178.753 115.041 177.889 112.9 176.962C105.124 173.596 95.2164 176.146 91.6314 184.098C89.0179 189.895 90.654 197.003 96.5081 200.004C100.999 202.305 106.13 204.315 111.898 206.038ZM156.384 182.05V158.15C159.612 159.277 162.268 160.661 164.373 162.287L164.384 162.296L164.396 162.305C166.944 164.158 168.208 166.669 168.208 169.944C168.208 172.528 167.393 174.799 165.748 176.796C164.118 178.775 161.496 180.419 157.766 181.664C157.324 181.801 156.863 181.93 156.384 182.05ZM135.184 97.6372V122.357C131.779 121.224 128.991 119.855 126.8 118.264C124.228 116.272 122.976 113.747 122.976 110.616C122.976 107.874 123.746 105.532 125.266 103.543L125.275 103.533L125.283 103.521C126.789 101.436 129.341 99.675 133.072 98.3069C133.74 98.0621 134.444 97.8388 135.184 97.6372Z" fill="white" stroke="#DBE5FF" stroke-width="2"/>
<g filter="url(#filter1_d_4_15)">
<path d="M309 172V152C303.5 135 311 129 297 95C265.417 104.116 238.083 150.807 206.5 188.244C174.917 226.036 143.333 254.357 111.75 259.048C80.1666 264.092 47.5833 249.011 32.7917 235.505C18 222 19 223 17 226C15 229 36.5 259.048 36.5 259.048L60.9999 283C86.4999 292.5 86.9999 291.5 111.75 302.5C153.5 310.5 122.5 304.5 155 311.5C186.583 311.5 187.5 307.291 206.5 298.5C240 283 206.5 298.5 240 283L270.5 259.048L303.5 198L309 172Z" fill="#B5C9FF"/>
</g>
</g>
<rect x="5" y="5" width="296.053" height="300" rx="148.026" stroke="#B5C9FF" stroke-width="10"/>
<defs>
<filter id="filter0_d_4_15" x="-49" y="19" width="374" height="250" filterUnits="userSpaceOnUse" color-interpolation-filters="sRGB">
<feFlood flood-opacity="0" result="BackgroundImageFix"/>
<feColorMatrix in="SourceAlpha" type="matrix" values="0 0 0 0 0 0 0 0 0 0 0 0 0 0 0 0 0 0 127 0" result="hardAlpha"/>
<feOffset dy="4"/>
<feGaussianBlur stdDeviation="2"/>
<feComposite in2="hardAlpha" operator="out"/>
<feColorMatrix type="matrix" values="0 0 0 0 0 0 0 0 0 0 0 0 0 0 0 0 0 0 0.25 0"/>
<feBlend mode="normal" in2="BackgroundImageFix" result="effect1_dropShadow_4_15"/>
<feBlend mode="normal" in="SourceGraphic" in2="effect1_dropShadow_4_15" result="shape"/>
</filter>
<filter id="filter1_d_4_15" x="12.8686" y="95" width="300.131" height="224.5" filterUnits="userSpaceOnUse" color-interpolation-filters="sRGB">
<feFlood flood-opacity="0" result="BackgroundImageFix"/>
<feColorMatrix in="SourceAlpha" type="matrix" values="0 0 0 0 0 0 0 0 0 0 0 0 0 0 0 0 0 0 127 0" result="hardAlpha"/>
<feOffset dy="4"/>
<feGaussianBlur stdDeviation="2"/>
<feComposite in2="hardAlpha" operator="out"/>
<feColorMatrix type="matrix" values="0 0 0 0 0 0 0 0 0 0 0 0 0 0 0 0 0 0 0.25 0"/>
<feBlend mode="normal" in2="BackgroundImageFix" result="effect1_dropShadow_4_15"/>
<feBlend mode="normal" in="SourceGraphic" in2="effect1_dropShadow_4_15" result="shape"/>
</filter>
<clipPath id="clip0_4_15">
<rect x="5" y="5" width="296.053" height="300" rx="148.026" fill="white"/>
</clipPath>
</defs>
</svg>
